<svg width="303" height="523" viewBox="0 0 303 523" fill="none" xmlns="http://www.w3.org/2000/svg">
<rect x="137.479" y="223.434" width="26.5416" height="269.589" fill="url(#paint0_linear_301_14)"/>
<rect x="108" y="490.878" width="86.0192" height="32.1219" rx="2" fill="url(#paint1_linear_301_14)"/>
<rect x="1" y="149" width="301" height="152.592" fill="url(#paint2_linear_301_14)" stroke="white" stroke-width="2"/>
<line y1="-1" x2="153.211" y2="-1" transform="matrix(0 -1 0.986341 -0.164714 172.655 301.581)" stroke="white" stroke-width="2"/>
<line y1="-1" x2="153.211" y2="-1" transform="matrix(0 -1 0.986341 -0.164714 260.491 301.581)" stroke="white" stroke-width="2"/>
<line y1="174.281" x2="303" y2="174.281" stroke="white" stroke-width="2"/>
<line y1="199.541" x2="303" y2="199.541" stroke="white" stroke-width="2"/>
<line y1="224.801" x2="303" y2="224.801" stroke="white" stroke-width="2"/>
<line y1="250.061" x2="303" y2="250.061" stroke="white" stroke-width="2"/>
<line y1="276.332" x2="303" y2="276.332" stroke="white" stroke-width="2"/>
<line y1="-1" x2="153.211" y2="-1" transform="matrix(0 -1 0.986341 -0.164714 42.8081 301.581)" stroke="white" stroke-width="2"/>
<line y1="-1" x2="153.211" y2="-1" transform="matrix(0 -1 0.986341 -0.164714 86.0894 301.581)" stroke="white" stroke-width="2"/>
<line y1="-1" x2="153.211" y2="-1" transform="matrix(0 -1 0.986341 -0.164714 129.373 301.581)" stroke="white" stroke-width="2"/>
<line y1="-1" x2="153.211" y2="-1" transform="matrix(0 -1 0.986341 -0.164714 217.209 301.581)" stroke="white" stroke-width="2"/>
<circle cx="150.5" cy="57.5" r="57.5" fill="#E0E000"/>
<defs>
<linearGradient id="paint0_linear_301_14" x1="150.75" y1="223.434" x2="150.75" y2="493.022" gradientUnits="userSpaceOnUse">
<stop offset="0.462725" stop-color="white"/>
<stop offset="1" stop-color="#333333"/>
</linearGradient>
<linearGradient id="paint1_linear_301_14" x1="151.01" y1="490.878" x2="151.01" y2="523" gradientUnits="userSpaceOnUse">
<stop offset="0.462725" stop-color="white"/>
<stop offset="1" stop-color="#333333"/>
</linearGradient>
<linearGradient id="paint2_linear_301_14" x1="151.5" y1="148" x2="151.5" y2="302.592" gradientUnits="userSpaceOnUse">
<stop stop-color="#002E84"/>
<stop offset="1" stop-color="#000F2C"/>
</linearGradient>
</defs>
</svg>
