<svg width="122" height="172" viewBox="0 0 122 172" fill="none" xmlns="http://www.w3.org/2000/svg">
<path d="M116 32L119 137L99 165.5L87 50.8028L116 32Z" fill="black" stroke="black"/>
<rect x="15.5" y="0.5" width="106" height="140" rx="10.5" fill="black" stroke="black"/>
<path d="M18.5 3L4 15.5L52.3573 17L67 3.7L18.5 3Z" fill="black"/>
<rect x="0.5" y="13.5" width="101" height="158" rx="10.5" fill="url(#paint0_linear_296_40)" stroke="black"/>
<line x1="5" y1="130" x2="97" y2="130" stroke="#00A54A" stroke-width="2"/>
<rect x="24" y="47" width="54" height="38" rx="2" fill="black"/>
<rect x="35" y="51" width="31" height="23" rx="4" fill="url(#paint1_linear_296_40)"/>
<g filter="url(#filter0_d_296_40)">
<rect x="31" y="79" width="40" height="1" fill="#D9D9D9"/>
</g>
<defs>
<filter id="filter0_d_296_40" x="27" y="79" width="48" height="9" filterUnits="userSpaceOnUse" color-interpolation-filters="sRGB">
<feFlood flood-opacity="0" result="BackgroundImageFix"/>
<feColorMatrix in="SourceAlpha" type="matrix" values="0 0 0 0 0 0 0 0 0 0 0 0 0 0 0 0 0 0 127 0" result="hardAlpha"/>
<feOffset dy="4"/>
<feGaussianBlur stdDeviation="2"/>
<feComposite in2="hardAlpha" operator="out"/>
<feColorMatrix type="matrix" values="0 0 0 0 0 0 0 0 0 0 0 0 0 0 0 0 0 0 0.25 0"/>
<feBlend mode="normal" in2="BackgroundImageFix" result="effect1_dropShadow_296_40"/>
<feBlend mode="normal" in="SourceGraphic" in2="effect1_dropShadow_296_40" result="shape"/>
</filter>
<linearGradient id="paint0_linear_296_40" x1="102.202" y1="10.5938" x2="-11.4404" y2="19.0966" gradientUnits="userSpaceOnUse">
<stop stop-color="white"/>
<stop offset="1" stop-color="#BDBDBD"/>
</linearGradient>
<linearGradient id="paint1_linear_296_40" x1="66" y1="61.9524" x2="35" y2="61.9524" gradientUnits="userSpaceOnUse">
<stop stop-color="#0070BB"/>
<stop offset="1" stop-color="#003355"/>
</linearGradient>
</defs>
</svg>
