<svg width="385" height="377" viewBox="0 0 385 377" fill="none" xmlns="http://www.w3.org/2000/svg">
<rect x="154.167" y="77.4336" width="26.5416" height="269.589" fill="url(#paint0_linear_301_12)"/>
<rect x="124.688" y="344.878" width="86.0192" height="32.1219" rx="2" fill="url(#paint1_linear_301_12)"/>
<path d="M128.721 2L2 152.748H257.59L383.774 2H128.721Z" fill="url(#paint2_linear_301_12)"/>
<line y1="-1" x2="196.633" y2="-1" transform="matrix(0.642763 -0.766065 0.929347 0.369208 257.982 153.061)" stroke="white" stroke-width="2"/>
<line y1="-1" x2="196.633" y2="-1" transform="matrix(0.642763 -0.766065 0.929347 0.369208 147.515 153.061)" stroke="white" stroke-width="2"/>
<line y1="-1" x2="196.633" y2="-1" transform="matrix(0.642763 -0.766065 0.929347 0.369208 221.613 153.061)" stroke="white" stroke-width="2"/>
<line x1="128.184" y1="1.37012" x2="383.774" y2="1.37012" stroke="white" stroke-width="2"/>
<line x1="107.779" y1="26.4946" x2="363.369" y2="26.4946" stroke="white" stroke-width="2"/>
<line x1="86.3008" y1="51.6191" x2="341.89" y2="51.6191" stroke="white" stroke-width="2"/>
<line x1="64.8242" y1="76.7437" x2="320.414" y2="76.7437" stroke="white" stroke-width="2"/>
<line x1="44.4194" y1="101.868" x2="300.009" y2="101.868" stroke="white" stroke-width="2"/>
<line x1="22.9404" y1="126.993" x2="278.53" y2="126.993" stroke="white" stroke-width="2"/>
<line x1="2.53613" y1="152.117" x2="258.126" y2="152.117" stroke="white" stroke-width="2"/>
<line y1="-1" x2="196.636" y2="-1" transform="matrix(0.642882 -0.765965 0.929387 0.369108 2.53613 153.061)" stroke="white" stroke-width="2"/>
<line y1="-1" x2="196.633" y2="-1" transform="matrix(0.642763 -0.766065 0.929347 0.369208 37.9761 153.061)" stroke="white" stroke-width="2"/>
<line y1="-1" x2="196.633" y2="-1" transform="matrix(0.642763 -0.766065 0.929347 0.369208 74.4878 153.061)" stroke="white" stroke-width="2"/>
<line y1="-1" x2="196.633" y2="-1" transform="matrix(0.642763 -0.766065 0.929347 0.369208 111.002 153.061)" stroke="white" stroke-width="2"/>
<line y1="-1" x2="196.633" y2="-1" transform="matrix(0.642763 -0.766065 0.929347 0.369208 185.101 153.061)" stroke="white" stroke-width="2"/>
<defs>
<linearGradient id="paint0_linear_301_12" x1="167.438" y1="77.4336" x2="167.438" y2="347.022" gradientUnits="userSpaceOnUse">
<stop offset="0.462725" stop-color="white"/>
<stop offset="1" stop-color="#333333"/>
</linearGradient>
<linearGradient id="paint1_linear_301_12" x1="167.698" y1="344.878" x2="167.698" y2="377" gradientUnits="userSpaceOnUse">
<stop offset="0.462725" stop-color="white"/>
<stop offset="1" stop-color="#333333"/>
</linearGradient>
<linearGradient id="paint2_linear_301_12" x1="252.22" y1="2.00001" x2="156.92" y2="169.47" gradientUnits="userSpaceOnUse">
<stop stop-color="#002E84"/>
<stop offset="1" stop-color="#000F2C"/>
</linearGradient>
</defs>
</svg>
